STARTFONT 2.1
FONT -DEC-Terminal-Medium-R-Narrow--14-140-75-75-C-60-iso8859-5
SIZE 14 75 75
FONTBOUNDINGBOX 6 15 0 -3

STARTPROPERTIES 24
FOUNDRY "Monotype"
FAMILY_NAME "VT"
WEIGHT_NAME "Regular"
SLANT "R"
SETWIDTH_NAME "Narrow"
ADD_STYLE_NAME ""
PIXEL_SIZE 14
POINT_SIZE 140
RESOLUTION_X 75
RESOLUTION_Y 75
SPACING "C"
AVERAGE_WIDTH 60
CHARSET_REGISTRY "iso8859"
CHARSET_ENCODING "5"
FACE_NAME "VT Narrow ISO Latin Cyrillic"
_DEC_DEVICE_FONTNAMES "PS=vt-narrow-isolatincyrillic"
COPYRIGHT "Copyright (c) 1993 Monotype Typography Ltd."
CAP_HEIGHT 8
X_HEIGHT 6
WEIGHT 10
QUAD_WIDTH 6
DEFAULT_CHAR 160
FONT_DESCENT 3
FONT_ASCENT 12
ENDPROPERTIES

CHARS 191

STARTCHAR space
ENCODING 32
SWIDTH 361 0
DWIDTH 6 0
BBX 6 15 0 -3
BITMAP
00
00
00
00
00
00
00
00
00
00
00
00
00
00
00
ENDCHAR

STARTCHAR exclam
ENCODING 33
SWIDTH 361 0
DWIDTH 6 0
BBX 6 15 0 -3
BITMAP
00
00
00
00
10
10
10
10
10
10
00
10
00
00
00
ENDCHAR

STARTCHAR quotedbl
ENCODING 34
SWIDTH 361 0
DWIDTH 6 0
BBX 6 15 0 -3
BITMAP
00
00
00
28
28
28
00
00
00
00
00
00
00
00
00
ENDCHAR

STARTCHAR numbersign
ENCODING 35
SWIDTH 361 0
DWIDTH 6 0
BBX 6 15 0 -3
BITMAP
00
00
00
00
28
28
7C
28
7C
28
28
00
00
00
00
ENDCHAR

STARTCHAR dollar
ENCODING 36
SWIDTH 361 0
DWIDTH 6 0
BBX 6 15 0 -3
BITMAP
00
00
00
00
10
38
54
38
14
54
38
10
00
00
00
ENDCHAR

STARTCHAR percent
ENCODING 37
SWIDTH 361 0
DWIDTH 6 0
BBX 6 15 0 -3
BITMAP
00
00
00
00
48
A8
50
10
20
28
54
48
00
00
00
ENDCHAR

STARTCHAR ampersand
ENCODING 38
SWIDTH 361 0
DWIDTH 6 0
BBX 6 15 0 -3
BITMAP
00
00
00
00
10
28
28
10
34
48
48
3C
00
00
00
ENDCHAR

STARTCHAR quoteright
ENCODING 39
SWIDTH 361 0
DWIDTH 6 0
BBX 6 15 0 -3
BITMAP
00
08
10
00
00
00
00
00
00
00
00
00
00
00
00
ENDCHAR

STARTCHAR parenleft
ENCODING 40
SWIDTH 361 0
DWIDTH 6 0
BBX 6 15 0 -3
BITMAP
00
00
00
08
10
10
20
20
20
20
10
10
08
00
00
ENDCHAR

STARTCHAR parenright
ENCODING 41
SWIDTH 361 0
DWIDTH 6 0
BBX 6 15 0 -3
BITMAP
00
00
00
20
10
10
08
08
08
08
10
10
20
00
00
ENDCHAR

STARTCHAR asterisk
ENCODING 42
SWIDTH 361 0
DWIDTH 6 0
BBX 6 15 0 -3
BITMAP
00
00
00
00
10
54
38
38
54
10
00
00
00
00
00
ENDCHAR

STARTCHAR plus
ENCODING 43
SWIDTH 361 0
DWIDTH 6 0
BBX 6 15 0 -3
BITMAP
00
00
00
00
00
10
10
7C
10
10
00
00
00
00
00
ENDCHAR

STARTCHAR comma
ENCODING 44
SWIDTH 361 0
DWIDTH 6 0
BBX 6 15 0 -3
BITMAP
00
00
00
00
00
00
00
00
00
00
10
10
20
00
00
ENDCHAR

STARTCHAR minus
ENCODING 45
SWIDTH 361 0
DWIDTH 6 0
BBX 6 15 0 -3
BITMAP
00
00
00
00
00
00
00
7C
00
00
00
00
00
00
00
ENDCHAR

STARTCHAR period
ENCODING 46
SWIDTH 361 0
DWIDTH 6 0
BBX 6 15 0 -3
BITMAP
00
00
00
00
00
00
00
00
00
00
10
10
00
00
00
ENDCHAR

STARTCHAR slash
ENCODING 47
SWIDTH 361 0
DWIDTH 6 0
BBX 6 15 0 -3
BITMAP
00
00
00
00
08
08
10
10
20
20
40
40
00
00
00
ENDCHAR

STARTCHAR zero
ENCODING 48
SWIDTH 361 0
DWIDTH 6 0
BBX 6 15 0 -3
BITMAP
00
00
00
00
10
28
44
44
44
44
28
10
00
00
00
ENDCHAR

STARTCHAR one
ENCODING 49
SWIDTH 361 0
DWIDTH 6 0
BBX 6 15 0 -3
BITMAP
00
00
00
00
10
30
10
10
10
10
10
7C
00
00
00
ENDCHAR

STARTCHAR two
ENCODING 50
SWIDTH 361 0
DWIDTH 6 0
BBX 6 15 0 -3
BITMAP
00
00
00
00
38
44
04
08
10
20
40
7C
00
00
00
ENDCHAR

STARTCHAR three
ENCODING 51
SWIDTH 361 0
DWIDTH 6 0
BBX 6 15 0 -3
BITMAP
00
00
00
00
38
44
04
18
04
04
44
38
00
00
00
ENDCHAR

STARTCHAR four
ENCODING 52
SWIDTH 361 0
DWIDTH 6 0
BBX 6 15 0 -3
BITMAP
00
00
00
00
08
18
28
48
48
7C
08
08
00
00
00
ENDCHAR

STARTCHAR five
ENCODING 53
SWIDTH 361 0
DWIDTH 6 0
BBX 6 15 0 -3
BITMAP
00
00
00
00
7C
40
40
78
44
04
44
38
00
00
00
ENDCHAR

STARTCHAR six
ENCODING 54
SWIDTH 361 0
DWIDTH 6 0
BBX 6 15 0 -3
BITMAP
00
00
00
00
18
20
40
78
44
44
44
38
00
00
00
ENDCHAR

STARTCHAR seven
ENCODING 55
SWIDTH 361 0
DWIDTH 6 0
BBX 6 15 0 -3
BITMAP
00
00
00
00
7C
04
08
10
10
20
20
20
00
00
00
ENDCHAR

STARTCHAR eight
ENCODING 56
SWIDTH 361 0
DWIDTH 6 0
BBX 6 15 0 -3
BITMAP
00
00
00
00
38
44
44
38
44
44
44
38
00
00
00
ENDCHAR

STARTCHAR nine
ENCODING 57
SWIDTH 361 0
DWIDTH 6 0
BBX 6 15 0 -3
BITMAP
00
00
00
00
38
44
44
44
3C
04
08
30
00
00
00
ENDCHAR

STARTCHAR colon
ENCODING 58
SWIDTH 361 0
DWIDTH 6 0
BBX 6 15 0 -3
BITMAP
00
00
00
00
00
00
10
10
00
00
10
10
00
00
00
ENDCHAR

STARTCHAR semicolon
ENCODING 59
SWIDTH 361 0
DWIDTH 6 0
BBX 6 15 0 -3
BITMAP
00
00
00
00
00
00
10
10
00
00
10
10
20
00
00
ENDCHAR

STARTCHAR less
ENCODING 60
SWIDTH 361 0
DWIDTH 6 0
BBX 6 15 0 -3
BITMAP
00
00
00
00
00
08
10
20
40
20
10
08
00
00
00
ENDCHAR

STARTCHAR equal
ENCODING 61
SWIDTH 361 0
DWIDTH 6 0
BBX 6 15 0 -3
BITMAP
00
00
00
00
00
00
00
7C
00
7C
00
00
00
00
00
ENDCHAR

STARTCHAR greater
ENCODING 62
SWIDTH 361 0
DWIDTH 6 0
BBX 6 15 0 -3
BITMAP
00
00
00
00
00
20
10
08
04
08
10
20
00
00
00
ENDCHAR

STARTCHAR question
ENCODING 63
SWIDTH 361 0
DWIDTH 6 0
BBX 6 15 0 -3
BITMAP
00
00
00
00
38
44
04
08
10
10
00
10
00
00
00
ENDCHAR

STARTCHAR at
ENCODING 64
SWIDTH 361 0
DWIDTH 6 0
BBX 6 15 0 -3
BITMAP
00
00
00
00
38
44
4C
54
54
4C
40
3C
00
00
00
ENDCHAR

STARTCHAR A
ENCODING 65
SWIDTH 361 0
DWIDTH 6 0
BBX 6 15 0 -3
BITMAP
00
00
00
00
10
28
28
44
44
7C
44
44
00
00
00
ENDCHAR

STARTCHAR B
ENCODING 66
SWIDTH 361 0
DWIDTH 6 0
BBX 6 15 0 -3
BITMAP
00
00
00
00
78
44
44
78
44
44
44
78
00
00
00
ENDCHAR

STARTCHAR C
ENCODING 67
SWIDTH 361 0
DWIDTH 6 0
BBX 6 15 0 -3
BITMAP
00
00
00
00
38
44
40
40
40
40
44
38
00
00
00
ENDCHAR

STARTCHAR D
ENCODING 68
SWIDTH 361 0
DWIDTH 6 0
BBX 6 15 0 -3
BITMAP
00
00
00
00
78
44
44
44
44
44
44
78
00
00
00
ENDCHAR

STARTCHAR E
ENCODING 69
SWIDTH 361 0
DWIDTH 6 0
BBX 6 15 0 -3
BITMAP
00
00
00
00
3C
20
20
38
20
20
20
3C
00
00
00
ENDCHAR

STARTCHAR F
ENCODING 70
SWIDTH 361 0
DWIDTH 6 0
BBX 6 15 0 -3
BITMAP
00
00
00
00
3C
20
20
38
20
20
20
20
00
00
00
ENDCHAR

STARTCHAR G
ENCODING 71
SWIDTH 361 0
DWIDTH 6 0
BBX 6 15 0 -3
BITMAP
00
00
00
00
38
44
40
4C
44
44
44
3C
00
00
00
ENDCHAR

STARTCHAR H
ENCODING 72
SWIDTH 361 0
DWIDTH 6 0
BBX 6 15 0 -3
BITMAP
00
00
00
00
44
44
44
7C
44
44
44
44
00
00
00
ENDCHAR

STARTCHAR I
ENCODING 73
SWIDTH 361 0
DWIDTH 6 0
BBX 6 15 0 -3
BITMAP
00
00
00
00
7C
10
10
10
10
10
10
7C
00
00
00
ENDCHAR

STARTCHAR J
ENCODING 74
SWIDTH 361 0
DWIDTH 6 0
BBX 6 15 0 -3
BITMAP
00
00
00
00
3C
08
08
08
08
08
48
30
00
00
00
ENDCHAR

STARTCHAR K
ENCODING 75
SWIDTH 361 0
DWIDTH 6 0
BBX 6 15 0 -3
BITMAP
00
00
00
00
44
48
50
60
60
50
48
44
00
00
00
ENDCHAR

STARTCHAR L
ENCODING 76
SWIDTH 361 0
DWIDTH 6 0
BBX 6 15 0 -3
BITMAP
00
00
00
00
20
20
20
20
20
20
20
3C
00
00
00
ENDCHAR

STARTCHAR M
ENCODING 77
SWIDTH 361 0
DWIDTH 6 0
BBX 6 15 0 -3
BITMAP
00
00
00
00
44
6C
6C
54
54
44
44
44
00
00
00
ENDCHAR

STARTCHAR N
ENCODING 78
SWIDTH 361 0
DWIDTH 6 0
BBX 6 15 0 -3
BITMAP
00
00
00
00
44
64
64
54
54
4C
4C
44
00
00
00
ENDCHAR

STARTCHAR O
ENCODING 79
SWIDTH 361 0
DWIDTH 6 0
BBX 6 15 0 -3
BITMAP
00
00
00
00
38
44
44
44
44
44
44
38
00
00
00
ENDCHAR

STARTCHAR P
ENCODING 80
SWIDTH 361 0
DWIDTH 6 0
BBX 6 15 0 -3
BITMAP
00
00
00
00
78
44
44
44
78
40
40
40
00
00
00
ENDCHAR

STARTCHAR Q
ENCODING 81
SWIDTH 361 0
DWIDTH 6 0
BBX 6 15 0 -3
BITMAP
00
00
00
00
38
44
44
44
44
44
54
38
04
00
00
ENDCHAR

STARTCHAR R
ENCODING 82
SWIDTH 361 0
DWIDTH 6 0
BBX 6 15 0 -3
BITMAP
00
00
00
00
78
44
44
44
78
50
48
44
00
00
00
ENDCHAR

STARTCHAR S
ENCODING 83
SWIDTH 361 0
DWIDTH 6 0
BBX 6 15 0 -3
BITMAP
00
00
00
00
38
44
40
38
04
04
44
38
00
00
00
ENDCHAR

STARTCHAR T
ENCODING 84
SWIDTH 361 0
DWIDTH 6 0
BBX 6 15 0 -3
BITMAP
00
00
00
00
7C
10
10
10
10
10
10
10
00
00
00
ENDCHAR

STARTCHAR U
ENCODING 85
SWIDTH 361 0
DWIDTH 6 0
BBX 6 15 0 -3
BITMAP
00
00
00
00
44
44
44
44
44
44
44
38
00
00
00
ENDCHAR

STARTCHAR V
ENCODING 86
SWIDTH 361 0
DWIDTH 6 0
BBX 6 15 0 -3
BITMAP
00
00
00
00
44
44
44
44
28
28
10
10
00
00
00
ENDCHAR

STARTCHAR W
ENCODING 87
SWIDTH 361 0
DWIDTH 6 0
BBX 6 15 0 -3
BITMAP
00
00
00
00
44
44
44
54
54
54
28
28
00
00
00
ENDCHAR

STARTCHAR X
ENCODING 88
SWIDTH 361 0
DWIDTH 6 0
BBX 6 15 0 -3
BITMAP
00
00
00
00
44
44
28
10
28
28
44
44
00
00
00
ENDCHAR

STARTCHAR Y
ENCODING 89
SWIDTH 361 0
DWIDTH 6 0
BBX 6 15 0 -3
BITMAP
00
00
00
00
44
44
28
28
10
10
10
10
00
00
00
ENDCHAR

STARTCHAR Z
ENCODING 90
SWIDTH 361 0
DWIDTH 6 0
BBX 6 15 0 -3
BITMAP
00
00
00
00
7C
04
08
10
20
40
40
7C
00
00
00
ENDCHAR

STARTCHAR bracketleft
ENCODING 91
SWIDTH 361 0
DWIDTH 6 0
BBX 6 15 0 -3
BITMAP
00
00
00
38
20
20
20
20
20
20
20
20
38
00
00
ENDCHAR

STARTCHAR backslash
ENCODING 92
SWIDTH 361 0
DWIDTH 6 0
BBX 6 15 0 -3
BITMAP
00
00
00
00
40
40
20
20
10
10
08
08
00
00
00
ENDCHAR

STARTCHAR bracketright
ENCODING 93
SWIDTH 361 0
DWIDTH 6 0
BBX 6 15 0 -3
BITMAP
00
00
00
38
08
08
08
08
08
08
08
08
38
00
00
ENDCHAR

STARTCHAR asciicircum
ENCODING 94
SWIDTH 361 0
DWIDTH 6 0
BBX 6 15 0 -3
BITMAP
00
00
10
28
44
00
00
00
00
00
00
00
00
00
00
ENDCHAR

STARTCHAR underscore
ENCODING 95
SWIDTH 361 0
DWIDTH 6 0
BBX 6 15 0 -3
BITMAP
00
00
00
00
00
00
00
00
00
00
00
7C
00
00
00
ENDCHAR

STARTCHAR quoteleft
ENCODING 96
SWIDTH 361 0
DWIDTH 6 0
BBX 6 15 0 -3
BITMAP
00
00
00
20
10
00
00
00
00
00
00
00
00
00
00
ENDCHAR

STARTCHAR a
ENCODING 97
SWIDTH 361 0
DWIDTH 6 0
BBX 6 15 0 -3
BITMAP
00
00
00
00
00
00
38
04
3C
44
44
3C
00
00
00
ENDCHAR

STARTCHAR b
ENCODING 98
SWIDTH 361 0
DWIDTH 6 0
BBX 6 15 0 -3
BITMAP
00
00
00
00
40
40
58
64
44
44
64
58
00
00
00
ENDCHAR

STARTCHAR c
ENCODING 99
SWIDTH 361 0
DWIDTH 6 0
BBX 6 15 0 -3
BITMAP
00
00
00
00
00
00
38
44
40
40
44
38
00
00
00
ENDCHAR

STARTCHAR d
ENCODING 100
SWIDTH 361 0
DWIDTH 6 0
BBX 6 15 0 -3
BITMAP
00
00
00
00
04
04
34
4C
44
44
4C
34
00
00
00
ENDCHAR

STARTCHAR e
ENCODING 101
SWIDTH 361 0
DWIDTH 6 0
BBX 6 15 0 -3
BITMAP
00
00
00
00
00
00
38
44
7C
40
44
38
00
00
00
ENDCHAR

STARTCHAR f
ENCODING 102
SWIDTH 361 0
DWIDTH 6 0
BBX 6 15 0 -3
BITMAP
00
00
00
00
18
24
20
78
20
20
20
20
00
00
00
ENDCHAR

STARTCHAR g
ENCODING 103
SWIDTH 361 0
DWIDTH 6 0
BBX 6 15 0 -3
BITMAP
00
00
00
00
00
00
34
48
48
30
40
78
44
38
00
ENDCHAR

STARTCHAR h
ENCODING 104
SWIDTH 361 0
DWIDTH 6 0
BBX 6 15 0 -3
BITMAP
00
00
00
00
40
40
58
64
44
44
44
44
00
00
00
ENDCHAR

STARTCHAR i
ENCODING 105
SWIDTH 362 0
DWIDTH 6 0
BBX 6 15 0 -3
BITMAP
00
00
00
00
10
00
30
10
10
10
10
7C
00
00
00
ENDCHAR

STARTCHAR j
ENCODING 106
SWIDTH 361 0
DWIDTH 6 0
BBX 6 15 0 -3
BITMAP
00
00
00
00
08
00
18
08
08
08
08
08
48
30
00
ENDCHAR

STARTCHAR k
ENCODING 107
SWIDTH 361 0
DWIDTH 6 0
BBX 6 15 0 -3
BITMAP
00
00
00
00
40
40
48
50
60
50
48
44
00
00
00
ENDCHAR

STARTCHAR l
ENCODING 108
SWIDTH 361 0
DWIDTH 6 0
BBX 6 15 0 -3
BITMAP
00
00
00
00
30
10
10
10
10
10
10
7C
00
00
00
ENDCHAR

STARTCHAR m
ENCODING 109
SWIDTH 361 0
DWIDTH 6 0
BBX 6 15 0 -3
BITMAP
00
00
00
00
00
00
68
54
54
54
44
44
00
00
00
ENDCHAR

STARTCHAR n
ENCODING 110
SWIDTH 361 0
DWIDTH 6 0
BBX 6 15 0 -3
BITMAP
00
00
00
00
00
00
58
64
44
44
44
44
00
00
00
ENDCHAR

STARTCHAR o
ENCODING 111
SWIDTH 361 0
DWIDTH 6 0
BBX 6 15 0 -3
BITMAP
00
00
00
00
00
00
38
44
44
44
44
38
00
00
00
ENDCHAR

STARTCHAR p
ENCODING 112
SWIDTH 361 0
DWIDTH 6 0
BBX 6 15 0 -3
BITMAP
00
00
00
00
00
00
58
64
44
44
64
58
40
40
00
ENDCHAR

STARTCHAR q
ENCODING 113
SWIDTH 361 0
DWIDTH 6 0
BBX 6 15 0 -3
BITMAP
00
00
00
00
00
00
34
4C
44
44
4C
34
04
04
00
ENDCHAR

STARTCHAR r
ENCODING 114
SWIDTH 361 0
DWIDTH 6 0
BBX 6 15 0 -3
BITMAP
00
00
00
00
00
00
5C
24
20
20
20
20
00
00
00
ENDCHAR

STARTCHAR s
ENCODING 115
SWIDTH 361 0
DWIDTH 6 0
BBX 6 15 0 -3
BITMAP
00
00
00
00
00
00
38
44
38
04
44
38
00
00
00
ENDCHAR

STARTCHAR t
ENCODING 116
SWIDTH 361 0
DWIDTH 6 0
BBX 6 15 0 -3
BITMAP
00
00
00
00
20
20
78
20
20
20
24
18
00
00
00
ENDCHAR

STARTCHAR u
ENCODING 117
SWIDTH 361 0
DWIDTH 6 0
BBX 6 15 0 -3
BITMAP
00
00
00
00
00
00
44
44
44
44
4C
34
00
00
00
ENDCHAR

STARTCHAR v
ENCODING 118
SWIDTH 361 0
DWIDTH 6 0
BBX 6 15 0 -3
BITMAP
00
00
00
00
00
00
44
44
44
28
28
10
00
00
00
ENDCHAR

STARTCHAR w
ENCODING 119
SWIDTH 361 0
DWIDTH 6 0
BBX 6 15 0 -3
BITMAP
00
00
00
00
00
00
44
44
54
54
54
28
00
00
00
ENDCHAR

STARTCHAR x
ENCODING 120
SWIDTH 361 0
DWIDTH 6 0
BBX 6 15 0 -3
BITMAP
00
00
00
00
00
00
6C
28
10
10
28
6C
00
00
00
ENDCHAR

STARTCHAR y
ENCODING 121
SWIDTH 361 0
DWIDTH 6 0
BBX 6 15 0 -3
BITMAP
00
00
00
00
00
00
44
44
44
28
28
10
10
60
00
ENDCHAR

STARTCHAR z
ENCODING 122
SWIDTH 361 0
DWIDTH 6 0
BBX 6 15 0 -3
BITMAP
00
00
00
00
00
00
7C
08
10
20
40
7C
00
00
00
ENDCHAR

STARTCHAR braceleft
ENCODING 123
SWIDTH 361 0
DWIDTH 6 0
BBX 6 15 0 -3
BITMAP
00
00
00
18
20
20
10
60
10
20
20
20
18
00
00
ENDCHAR

STARTCHAR bar
ENCODING 124
SWIDTH 361 0
DWIDTH 6 0
BBX 6 15 0 -3
BITMAP
00
00
00
10
10
10
10
10
10
10
10
10
10
00
00
ENDCHAR

STARTCHAR braceright
ENCODING 125
SWIDTH 361 0
DWIDTH 6 0
BBX 6 15 0 -3
BITMAP
00
00
00
60
10
10
20
18
20
10
10
10
60
00
00
ENDCHAR

STARTCHAR asciitilde
ENCODING 126
SWIDTH 361 0
DWIDTH 6 0
BBX 6 15 0 -3
BITMAP
00
00
00
24
54
48
00
00
00
00
00
00
00
00
00
ENDCHAR

STARTCHAR space
ENCODING 160
SWIDTH 361 0
DWIDTH 6 0
BBX 6 15 0 -3
BITMAP
00
00
00
00
00
00
00
00
00
00
00
00
00
00
00
ENDCHAR

STARTCHAR afii10023
ENCODING 161
SWIDTH 361 0
DWIDTH 6 0
BBX 6 15 0 -3
BITMAP
00
28
28
00
3C
20
20
38
20
20
20
3C
00
00
00
ENDCHAR

STARTCHAR afii10051
ENCODING 162
SWIDTH 361 0
DWIDTH 6 0
BBX 6 15 0 -3
BITMAP
00
00
00
00
F8
20
20
28
34
24
24
28
00
00
00
ENDCHAR

STARTCHAR afii10052
ENCODING 163
SWIDTH 361 0
DWIDTH 6 0
BBX 6 15 0 -3
BITMAP
00
08
10
00
7C
40
40
40
40
40
40
40
00
00
00
ENDCHAR

STARTCHAR afii10053
ENCODING 164
SWIDTH 361 0
DWIDTH 6 0
BBX 6 15 0 -3
BITMAP
00
00
00
00
38
44
40
70
40
40
44
38
00
00
00
ENDCHAR

STARTCHAR afii10054
ENCODING 165
SWIDTH 361 0
DWIDTH 6 0
BBX 6 15 0 -3
BITMAP
00
00
00
00
38
44
40
38
04
04
44
38
00
00
00
ENDCHAR

STARTCHAR afii10055
ENCODING 166
SWIDTH 361 0
DWIDTH 6 0
BBX 6 15 0 -3
BITMAP
00
00
00
00
7C
10
10
10
10
10
10
7C
00
00
00
ENDCHAR

STARTCHAR afii10056
ENCODING 167
SWIDTH 361 0
DWIDTH 6 0
BBX 6 15 0 -3
BITMAP
00
28
28
00
7C
10
10
10
10
10
10
7C
00
00
00
ENDCHAR

STARTCHAR afii10057
ENCODING 168
SWIDTH 361 0
DWIDTH 6 0
BBX 6 15 0 -3
BITMAP
00
00
00
00
3C
08
08
08
08
08
48
30
00
00
00
ENDCHAR

STARTCHAR afii10058
ENCODING 169
SWIDTH 361 0
DWIDTH 6 0
BBX 6 15 0 -3
BITMAP
00
00
00
00
70
50
50
50
58
54
54
D8
00
00
00
ENDCHAR

STARTCHAR afii10059
ENCODING 170
SWIDTH 361 0
DWIDTH 6 0
BBX 6 15 0 -3
BITMAP
00
00
00
00
A0
A0
A0
F8
A4
A4
A4
B8
00
00
00
ENDCHAR

STARTCHAR afii10060
ENCODING 171
SWIDTH 361 0
DWIDTH 6 0
BBX 6 15 0 -3
BITMAP
00
00
00
00
F8
20
20
28
34
24
24
24
00
00
00
ENDCHAR

STARTCHAR afii10061
ENCODING 172
SWIDTH 361 0
DWIDTH 6 0
BBX 6 15 0 -3
BITMAP
00
08
10
00
4C
50
50
60
50
48
48
44
00
00
00
ENDCHAR

STARTCHAR hyphen
ENCODING 173
SWIDTH 361 0
DWIDTH 6 0
BBX 6 15 0 -3
BITMAP
00
00
00
00
00
00
00
38
00
00
00
00
00
00
00
ENDCHAR

STARTCHAR afii10062
ENCODING 174
SWIDTH 361 0
DWIDTH 6 0
BBX 6 15 0 -3
BITMAP
00
44
38
00
44
44
44
28
28
10
50
60
00
00
00
ENDCHAR

STARTCHAR afii10145
ENCODING 175
SWIDTH 361 0
DWIDTH 6 0
BBX 6 15 0 -3
BITMAP
00
00
00
00
44
44
44
44
44
44
44
7C
10
10
00
ENDCHAR

STARTCHAR afii10017
ENCODING 176
SWIDTH 361 0
DWIDTH 6 0
BBX 6 15 0 -3
BITMAP
00
00
00
00
10
28
28
44
44
7C
44
44
00
00
00
ENDCHAR

STARTCHAR afii10018
ENCODING 177
SWIDTH 361 0
DWIDTH 6 0
BBX 6 15 0 -3
BITMAP
00
00
00
00
7C
40
40
78
44
44
44
78
00
00
00
ENDCHAR

STARTCHAR afii10019
ENCODING 178
SWIDTH 361 0
DWIDTH 6 0
BBX 6 15 0 -3
BITMAP
00
00
00
00
78
44
44
78
44
44
44
78
00
00
00
ENDCHAR

STARTCHAR afii10020
ENCODING 179
SWIDTH 361 0
DWIDTH 6 0
BBX 6 15 0 -3
BITMAP
00
00
00
00
7C
40
40
40
40
40
40
40
00
00
00
ENDCHAR

STARTCHAR afii10021
ENCODING 180
SWIDTH 361 0
DWIDTH 6 0
BBX 6 15 0 -3
BITMAP
00
00
00
00
38
28
28
28
28
28
48
FC
84
84
00
ENDCHAR

STARTCHAR afii10022
ENCODING 181
SWIDTH 361 0
DWIDTH 6 0
BBX 6 15 0 -3
BITMAP
00
00
00
00
3C
20
20
38
20
20
20
3C
00
00
00
ENDCHAR

STARTCHAR afii10024
ENCODING 182
SWIDTH 361 0
DWIDTH 6 0
BBX 6 15 0 -3
BITMAP
00
00
00
00
54
54
54
38
54
54
54
54
00
00
00
ENDCHAR

STARTCHAR afii10025
ENCODING 183
SWIDTH 361 0
DWIDTH 6 0
BBX 6 15 0 -3
BITMAP
00
00
00
00
38
44
04
38
04
04
44
38
00
00
00
ENDCHAR

STARTCHAR afii10026
ENCODING 184
SWIDTH 361 0
DWIDTH 6 0
BBX 6 15 0 -3
BITMAP
00
00
00
00
44
4C
4C
54
54
64
64
44
00
00
00
ENDCHAR

STARTCHAR afii10027
ENCODING 185
SWIDTH 361 0
DWIDTH 6 0
BBX 6 15 0 -3
BITMAP
00
44
38
00
44
4C
4C
54
54
64
64
44
00
00
00
ENDCHAR

STARTCHAR afii10028
ENCODING 186
SWIDTH 361 0
DWIDTH 6 0
BBX 6 15 0 -3
BITMAP
00
00
00
00
4C
50
50
60
50
48
48
44
00
00
00
ENDCHAR

STARTCHAR afii10029
ENCODING 187
SWIDTH 361 0
DWIDTH 6 0
BBX 6 15 0 -3
BITMAP
00
00
00
00
3C
24
24
24
24
24
24
C4
00
00
00
ENDCHAR

STARTCHAR afii10030
ENCODING 188
SWIDTH 361 0
DWIDTH 6 0
BBX 6 15 0 -3
BITMAP
00
00
00
00
44
44
6C
54
54
44
44
44
00
00
00
ENDCHAR

STARTCHAR afii10031
ENCODING 189
SWIDTH 361 0
DWIDTH 6 0
BBX 6 15 0 -3
BITMAP
00
00
00
00
44
44
44
7C
44
44
44
44
00
00
00
ENDCHAR

STARTCHAR afii10032
ENCODING 190
SWIDTH 361 0
DWIDTH 6 0
BBX 6 15 0 -3
BITMAP
00
00
00
00
38
44
44
44
44
44
44
38
00
00
00
ENDCHAR

STARTCHAR afii10033
ENCODING 191
SWIDTH 361 0
DWIDTH 6 0
BBX 6 15 0 -3
BITMAP
00
00
00
00
7C
44
44
44
44
44
44
44
00
00
00
ENDCHAR

STARTCHAR afii10034
ENCODING 192
SWIDTH 361 0
DWIDTH 6 0
BBX 6 15 0 -3
BITMAP
00
00
00
00
78
44
44
44
78
40
40
40
00
00
00
ENDCHAR

STARTCHAR afii10035
ENCODING 193
SWIDTH 361 0
DWIDTH 6 0
BBX 6 15 0 -3
BITMAP
00
00
00
00
38
44
40
40
40
40
44
38
00
00
00
ENDCHAR

STARTCHAR afii10036
ENCODING 194
SWIDTH 361 0
DWIDTH 6 0
BBX 6 15 0 -3
BITMAP
00
00
00
00
7C
10
10
10
10
10
10
10
00
00
00
ENDCHAR

STARTCHAR afii10037
ENCODING 195
SWIDTH 361 0
DWIDTH 6 0
BBX 6 15 0 -3
BITMAP
00
00
00
00
44
44
44
28
28
10
50
60
00
00
00
ENDCHAR

STARTCHAR afii10038
ENCODING 196
SWIDTH 361 0
DWIDTH 6 0
BBX 6 15 0 -3
BITMAP
00
00
00
00
10
38
54
54
54
54
38
10
00
00
00
ENDCHAR

STARTCHAR afii10039
ENCODING 197
SWIDTH 361 0
DWIDTH 6 0
BBX 6 15 0 -3
BITMAP
00
00
00
00
44
44
28
10
28
28
44
44
00
00
00
ENDCHAR

STARTCHAR afii10040
ENCODING 198
SWIDTH 361 0
DWIDTH 6 0
BBX 6 15 0 -3
BITMAP
00
00
00
00
88
88
88
88
88
88
88
FC
04
04
00
ENDCHAR

STARTCHAR afii10041
ENCODING 199
SWIDTH 361 0
DWIDTH 6 0
BBX 6 15 0 -3
BITMAP
00
00
00
00
44
44
44
4C
34
04
04
04
00
00
00
ENDCHAR

STARTCHAR afii10042
ENCODING 200
SWIDTH 361 0
DWIDTH 6 0
BBX 6 15 0 -3
BITMAP
00
00
00
00
54
54
54
54
54
54
54
7C
00
00
00
ENDCHAR

STARTCHAR afii10043
ENCODING 201
SWIDTH 361 0
DWIDTH 6 0
BBX 6 15 0 -3
BITMAP
00
00
00
00
A8
A8
A8
A8
A8
A8
A8
FC
04
04
00
ENDCHAR

STARTCHAR afii10044
ENCODING 202
SWIDTH 361 0
DWIDTH 6 0
BBX 6 15 0 -3
BITMAP
00
00
00
00
E0
20
20
38
24
24
24
38
00
00
00
ENDCHAR

STARTCHAR afii10045
ENCODING 203
SWIDTH 361 0
DWIDTH 6 0
BBX 6 15 0 -3
BITMAP
00
00
00
00
84
84
84
E4
94
94
94
E4
00
00
00
ENDCHAR

STARTCHAR afii10046
ENCODING 204
SWIDTH 361 0
DWIDTH 6 0
BBX 6 15 0 -3
BITMAP
00
00
00
00
40
40
40
78
44
44
44
78
00
00
00
ENDCHAR

STARTCHAR afii10047
ENCODING 205
SWIDTH 361 0
DWIDTH 6 0
BBX 6 15 0 -3
BITMAP
00
00
00
00
38
44
04
3C
04
04
44
38
00
00
00
ENDCHAR

STARTCHAR afii10048
ENCODING 206
SWIDTH 361 0
DWIDTH 6 0
BBX 6 15 0 -3
BITMAP
00
00
00
00
98
A4
A4
E4
A4
A4
A4
98
00
00
00
ENDCHAR

STARTCHAR afii10049
ENCODING 207
SWIDTH 361 0
DWIDTH 6 0
BBX 6 15 0 -3
BITMAP
00
00
00
00
3C
44
44
44
3C
14
24
44
00
00
00
ENDCHAR

STARTCHAR afii10065
ENCODING 208
SWIDTH 361 0
DWIDTH 6 0
BBX 6 15 0 -3
BITMAP
00
00
00
00
00
00
38
04
3C
44
44
3C
00
00
00
ENDCHAR

STARTCHAR afii10066
ENCODING 209
SWIDTH 361 0
DWIDTH 6 0
BBX 6 15 0 -3
BITMAP
00
00
00
04
38
40
78
44
44
44
44
38
00
00
00
ENDCHAR

STARTCHAR afii10067
ENCODING 210
SWIDTH 361 0
DWIDTH 6 0
BBX 6 15 0 -3
BITMAP
00
00
00
00
00
00
70
48
70
48
48
70
00
00
00
ENDCHAR

STARTCHAR afii10068
ENCODING 211
SWIDTH 361 0
DWIDTH 6 0
BBX 6 15 0 -3
BITMAP
00
00
00
00
00
00
7C
40
40
40
40
40
00
00
00
ENDCHAR

STARTCHAR afii10069
ENCODING 212
SWIDTH 361 0
DWIDTH 6 0
BBX 6 15 0 -3
BITMAP
00
00
00
00
00
00
38
28
28
28
48
FC
84
00
00
ENDCHAR

STARTCHAR afii10070
ENCODING 213
SWIDTH 361 0
DWIDTH 6 0
BBX 6 15 0 -3
BITMAP
00
00
00
00
00
00
38
44
7C
40
44
38
00
00
00
ENDCHAR

STARTCHAR afii10072
ENCODING 214
SWIDTH 361 0
DWIDTH 6 0
BBX 6 15 0 -3
BITMAP
00
00
00
00
00
00
54
54
38
54
54
54
00
00
00
ENDCHAR

STARTCHAR afii10073
ENCODING 215
SWIDTH 361 0
DWIDTH 6 0
BBX 6 15 0 -3
BITMAP
00
00
00
00
00
00
38
44
18
04
44
38
00
00
00
ENDCHAR

STARTCHAR afii10074
ENCODING 216
SWIDTH 361 0
DWIDTH 6 0
BBX 6 15 0 -3
BITMAP
00
00
00
00
00
00
44
4C
54
54
64
44
00
00
00
ENDCHAR

STARTCHAR afii10075
ENCODING 217
SWIDTH 361 0
DWIDTH 6 0
BBX 6 15 0 -3
BITMAP
00
00
00
44
38
00
44
4C
54
54
64
44
00
00
00
ENDCHAR

STARTCHAR afii10076
ENCODING 218
SWIDTH 361 0
DWIDTH 6 0
BBX 6 15 0 -3
BITMAP
00
00
00
00
00
00
58
50
60
50
50
48
00
00
00
ENDCHAR

STARTCHAR afii10077
ENCODING 219
SWIDTH 361 0
DWIDTH 6 0
BBX 6 15 0 -3
BITMAP
00
00
00
00
00
00
3C
24
24
24
24
C4
00
00
00
ENDCHAR

STARTCHAR afii10078
ENCODING 220
SWIDTH 361 0
DWIDTH 6 0
BBX 6 15 0 -3
BITMAP
00
00
00
00
00
00
44
6C
54
54
44
44
00
00
00
ENDCHAR

STARTCHAR afii10079
ENCODING 221
SWIDTH 361 0
DWIDTH 6 0
BBX 6 15 0 -3
BITMAP
00
00
00
00
00
00
44
44
7C
44
44
44
00
00
00
ENDCHAR

STARTCHAR afii10080
ENCODING 222
SWIDTH 361 0
DWIDTH 6 0
BBX 6 15 0 -3
BITMAP
00
00
00
00
00
00
38
44
44
44
44
38
00
00
00
ENDCHAR

STARTCHAR afii10081
ENCODING 223
SWIDTH 361 0
DWIDTH 6 0
BBX 6 15 0 -3
BITMAP
00
00
00
00
00
00
7C
44
44
44
44
44
00
00
00
ENDCHAR

STARTCHAR afii10082
ENCODING 224
SWIDTH 361 0
DWIDTH 6 0
BBX 6 15 0 -3
BITMAP
00
00
00
00
00
00
58
64
44
44
64
58
40
40
40
ENDCHAR

STARTCHAR afii10083
ENCODING 225
SWIDTH 361 0
DWIDTH 6 0
BBX 6 15 0 -3
BITMAP
00
00
00
00
00
00
38
44
40
40
44
38
00
00
00
ENDCHAR

STARTCHAR afii10084
ENCODING 226
SWIDTH 361 0
DWIDTH 6 0
BBX 6 15 0 -3
BITMAP
00
00
00
00
00
00
7C
10
10
10
10
10
00
00
00
ENDCHAR

STARTCHAR afii10085
ENCODING 227
SWIDTH 361 0
DWIDTH 6 0
BBX 6 15 0 -3
BITMAP
00
00
00
00
00
00
44
44
44
28
28
10
50
60
00
ENDCHAR

STARTCHAR afii10086
ENCODING 228
SWIDTH 361 0
DWIDTH 6 0
BBX 6 15 0 -3
BITMAP
00
00
00
00
10
10
38
54
54
54
54
38
10
10
00
ENDCHAR

STARTCHAR afii10087
ENCODING 229
SWIDTH 361 0
DWIDTH 6 0
BBX 6 15 0 -3
BITMAP
00
00
00
00
00
00
6C
28
10
10
28
6C
00
00
00
ENDCHAR

STARTCHAR afii10088
ENCODING 230
SWIDTH 361 0
DWIDTH 6 0
BBX 6 15 0 -3
BITMAP
00
00
00
00
00
00
88
88
88
88
88
FC
04
00
00
ENDCHAR

STARTCHAR afii10089
ENCODING 231
SWIDTH 361 0
DWIDTH 6 0
BBX 6 15 0 -3
BITMAP
00
00
00
00
00
00
44
44
4C
34
04
04
00
00
00
ENDCHAR

STARTCHAR afii10090
ENCODING 232
SWIDTH 361 0
DWIDTH 6 0
BBX 6 15 0 -3
BITMAP
00
00
00
00
00
00
54
54
54
54
54
7C
00
00
00
ENDCHAR

STARTCHAR afii10091
ENCODING 233
SWIDTH 361 0
DWIDTH 6 0
BBX 6 15 0 -3
BITMAP
00
00
00
00
00
00
A8
A8
A8
A8
A8
FC
04
00
00
ENDCHAR

STARTCHAR afii10092
ENCODING 234
SWIDTH 361 0
DWIDTH 6 0
BBX 6 15 0 -3
BITMAP
00
00
00
00
00
00
E0
20
38
24
24
38
00
00
00
ENDCHAR

STARTCHAR afii10093
ENCODING 235
SWIDTH 361 0
DWIDTH 6 0
BBX 6 15 0 -3
BITMAP
00
00
00
00
00
00
84
84
E4
94
94
E4
00
00
00
ENDCHAR

STARTCHAR afii10094
ENCODING 236
SWIDTH 361 0
DWIDTH 6 0
BBX 6 15 0 -3
BITMAP
00
00
00
00
00
00
40
40
70
48
48
70
00
00
00
ENDCHAR

STARTCHAR afii10095
ENCODING 237
SWIDTH 361 0
DWIDTH 6 0
BBX 6 15 0 -3
BITMAP
00
00
00
00
00
00
38
44
1C
04
44
38
00
00
00
ENDCHAR

STARTCHAR afii10096
ENCODING 238
SWIDTH 361 0
DWIDTH 6 0
BBX 6 15 0 -3
BITMAP
00
00
00
00
00
00
98
A4
E4
A4
A4
98
00
00
00
ENDCHAR

STARTCHAR afii10097
ENCODING 239
SWIDTH 361 0
DWIDTH 6 0
BBX 6 15 0 -3
BITMAP
00
00
00
00
00
00
1C
24
24
1C
24
44
00
00
00
ENDCHAR

STARTCHAR afii61352
ENCODING 240
SWIDTH 361 0
DWIDTH 6 0
BBX 6 15 0 -3
BITMAP
00
00
00
00
90
DC
DC
FC
B0
BC
90
90
00
00
00
ENDCHAR

STARTCHAR afii10071
ENCODING 241
SWIDTH 361 0
DWIDTH 6 0
BBX 6 15 0 -3
BITMAP
00
00
00
28
28
00
38
44
7C
40
44
38
00
00
00
ENDCHAR

STARTCHAR afii10099
ENCODING 242
SWIDTH 361 0
DWIDTH 6 0
BBX 6 15 0 -3
BITMAP
00
00
00
00
78
20
38
24
24
24
24
24
04
18
00
ENDCHAR

STARTCHAR afii10100
ENCODING 243
SWIDTH 361 0
DWIDTH 6 0
BBX 6 15 0 -3
BITMAP
00
00
00
10
20
00
7C
40
40
40
40
40
00
00
00
ENDCHAR

STARTCHAR afii10101
ENCODING 244
SWIDTH 361 0
DWIDTH 6 0
BBX 6 15 0 -3
BITMAP
00
00
00
00
00
00
38
44
70
40
44
38
00
00
00
ENDCHAR

STARTCHAR afii10102
ENCODING 245
SWIDTH 361 0
DWIDTH 6 0
BBX 6 15 0 -3
BITMAP
00
00
00
00
00
00
38
44
38
04
44
38
00
00
00
ENDCHAR

STARTCHAR afii10103
ENCODING 246
SWIDTH 362 0
DWIDTH 6 0
BBX 6 15 0 -3
BITMAP
00
00
00
00
10
00
30
10
10
10
10
7C
00
00
00
ENDCHAR

STARTCHAR afii10104
ENCODING 247
SWIDTH 361 0
DWIDTH 6 0
BBX 6 15 0 -3
BITMAP
00
00
00
28
28
00
30
10
10
10
10
7C
00
00
00
ENDCHAR

STARTCHAR afii10105
ENCODING 248
SWIDTH 361 0
DWIDTH 6 0
BBX 6 15 0 -3
BITMAP
00
00
00
00
08
00
18
08
08
08
08
08
48
30
00
ENDCHAR

STARTCHAR afii10106
ENCODING 249
SWIDTH 361 0
DWIDTH 6 0
BBX 6 15 0 -3
BITMAP
00
00
00
00
00
00
70
50
58
54
54
D8
00
00
00
ENDCHAR

STARTCHAR afii10107
ENCODING 250
SWIDTH 361 0
DWIDTH 6 0
BBX 6 15 0 -3
BITMAP
00
00
00
00
00
00
A0
A0
F8
A4
A4
B8
00
00
00
ENDCHAR

STARTCHAR afii10108
ENCODING 251
SWIDTH 361 0
DWIDTH 6 0
BBX 6 15 0 -3
BITMAP
00
00
00
00
78
20
38
24
24
24
24
24
00
00
00
ENDCHAR

STARTCHAR afii10109
ENCODING 252
SWIDTH 361 0
DWIDTH 6 0
BBX 6 15 0 -3
BITMAP
00
00
00
10
20
00
58
50
60
50
50
48
00
00
00
ENDCHAR

STARTCHAR section
ENCODING 253
SWIDTH 361 0
DWIDTH 6 0
BBX 6 15 0 -3
BITMAP
00
00
00
00
18
24
10
18
24
18
08
24
18
00
00
ENDCHAR

STARTCHAR afii10110
ENCODING 254
SWIDTH 361 0
DWIDTH 6 0
BBX 6 15 0 -3
BITMAP
00
00
00
44
38
00
44
44
44
28
28
10
50
60
00
ENDCHAR

STARTCHAR afii10193
ENCODING 255
SWIDTH 361 0
DWIDTH 6 0
BBX 6 15 0 -3
BITMAP
00
00
00
00
00
00
44
44
44
44
44
7C
10
10
00
ENDCHAR
ENDFONT
